<svg xmlns="http://www.w3.org/2000/svg" xmlns:xlink="http://www.w3.org/1999/xlink" viewBox="0 0 83.136 39.034">
  <defs>
    <linearGradient id="linear-gradient" x1="0.036" y1="0.414" x2="1.045" y2="0.408" gradientUnits="objectBoundingBox">
      <stop offset="0" stop-color="#00ebd6"/>
      <stop offset="1" stop-color="#7823f7"/>
    </linearGradient>
    <linearGradient id="linear-gradient-2" x1="0.434" y1="1.693" x2="0.407" y2="0.112" gradientUnits="objectBoundingBox">
      <stop offset="0" stop-color="#0b2238"/>
      <stop offset="0.798" stop-color="#0b2238" stop-opacity="0.133"/>
      <stop offset="1" stop-color="#0b2238" stop-opacity="0"/>
    </linearGradient>
    <linearGradient id="linear-gradient-3" x1="0" y1="0.5" x2="1" y2="0.5" xlink:href="#linear-gradient"/>
  </defs>
  <g id="Biti_Official_Logo-03" data-name="Biti Official Logo-03" transform="translate(-11.45 -105.37)">
    <g id="Group_6557" data-name="Group 6557" transform="translate(11.45 105.37)">
      <path id="Path_1758" data-name="Path 1758" d="M11.45,105.37H29.193a10.645,10.645,0,0,1,10.645,10.645h0a10.645,10.645,0,0,1-10.645,10.645H18.548Z" transform="translate(-11.45 -105.37)" fill="url(#linear-gradient)"/>
      <path id="Path_1759" data-name="Path 1759" d="M11.45,105.37H29.193a10.645,10.645,0,0,1,10.645,10.645h0a10.645,10.645,0,0,1-10.645,10.645H18.548Z" transform="translate(-11.45 -105.37)" fill="url(#linear-gradient-2)"/>
      <path id="Path_1760" data-name="Path 1760" d="M11.45,245.2H36.836a12.42,12.42,0,0,1,12.42,12.42h0a12.42,12.42,0,0,1-12.42,12.42H18.548Z" transform="translate(-11.45 -231.006)" fill="url(#linear-gradient-3)"/>
    </g>
    <path id="Path_1761" data-name="Path 1761" d="M442.674,184.711a7.929,7.929,0,0,1,4.354-1.174,8.5,8.5,0,0,1,4.37,1.125,7.861,7.861,0,0,1,3.017,3.2,11.175,11.175,0,0,1,0,9.637,7.918,7.918,0,0,1-3.033,3.229,8.424,8.424,0,0,1-4.354,1.142,8.065,8.065,0,0,1-4.386-1.158,6.907,6.907,0,0,1-2.691-3.017v4.175H437.7v-24.4h2.25v10.274A7.217,7.217,0,0,1,442.674,184.711Zm9.654,4.125a6.02,6.02,0,0,0-2.365-2.463,6.769,6.769,0,0,0-3.391-.848,6.538,6.538,0,0,0-3.343.88,6.287,6.287,0,0,0-2.4,2.511,8.563,8.563,0,0,0,0,7.567,6.28,6.28,0,0,0,2.4,2.511,6.542,6.542,0,0,0,3.343.881,6.675,6.675,0,0,0,3.391-.864,6.074,6.074,0,0,0,2.365-2.511,8.137,8.137,0,0,0,.864-3.832A8.009,8.009,0,0,0,452.328,188.836Zm8.391-5.3v18.33h-2.283v-18.33Zm7.722,1.925v11.578a3.166,3.166,0,0,0,.619,2.25,3.053,3.053,0,0,0,2.186.62h1.112v1.957h-1.47a5.016,5.016,0,0,1-3.587-1.126,4.957,4.957,0,0,1-1.174-3.7V185.461h-2.479v-1.925h2.479v-4.044h2.315v4.044h3.916v1.925Zm9.127-1.925v18.33h-2.283v-18.33Zm-16.849-4.044v2.283h-2.283v-2.283Zm16.849,0v2.283h-2.283v-2.283Z" transform="translate(-382.981 -64.781)"/>
  </g>
</svg>